<?xml version="1.0" encoding="UTF-8" standalone="no"?>
<svg
   xmlns:dc="http://purl.org/dc/elements/1.1/"
   xmlns:cc="http://creativecommons.org/ns#"
   xmlns:rdf="http://www.w3.org/1999/02/22-rdf-syntax-ns#"
   xmlns:svg="http://www.w3.org/2000/svg"
   xmlns="http://www.w3.org/2000/svg"
   xmlns:sodipodi="http://sodipodi.sourceforge.net/DTD/sodipodi-0.dtd"
   xmlns:inkscape="http://www.inkscape.org/namespaces/inkscape"
   version="1.1"
   x="0px"
   y="0px"
   viewBox="0 0 40 40"
   enable-background="new 0 0 100 100"
   xml:space="preserve"
   id="svg3392"
   inkscape:version="0.91 r13725"
   sodipodi:docname="garbage.svg"
   width="40"
   height="40"
   inkscape:export-filename="/home/enolan/mystuff/code/emp-pl-site/static/images/garbage-active.png"
   inkscape:export-xdpi="90"
   inkscape:export-ydpi="90"><metadata
     id="metadata3408"><rdf:RDF><cc:Work
         rdf:about=""><dc:format>image/svg+xml</dc:format><dc:type
           rdf:resource="http://purl.org/dc/dcmitype/StillImage" /><dc:title /></cc:Work></rdf:RDF></metadata><defs
     id="defs3406" /><sodipodi:namedview
     pagecolor="#ffffff"
     bordercolor="#666666"
     borderopacity="1"
     objecttolerance="10"
     gridtolerance="10"
     guidetolerance="10"
     inkscape:pageopacity="0"
     inkscape:pageshadow="2"
     inkscape:window-width="1920"
     inkscape:window-height="1056"
     id="namedview3404"
     showgrid="false"
     inkscape:snap-to-guides="true"
     inkscape:zoom="16"
     inkscape:cx="-3.3169254"
     inkscape:cy="18.496074"
     inkscape:window-x="0"
     inkscape:window-y="24"
     inkscape:window-maximized="1"
     inkscape:current-layer="layer2" /><g
     inkscape:groupmode="layer"
     id="layer3"
     inkscape:label="inactive backdrop"
     style="display:inline"><rect
       style="fill:#ffffff"
       id="rect3421"
       width="140"
       height="110.5"
       x="-52.25"
       y="-27.5" /></g><g
     inkscape:groupmode="layer"
     id="layer1"
     inkscape:label="active backdrop"
     style="display:inline"><rect
       style="fill:#000000;fill-opacity:0.29803922"
       id="rect3413"
       width="73.125"
       height="69.375"
       x="-15.625"
       y="-12.75" /></g><g
     inkscape:groupmode="layer"
     id="layer2"
     inkscape:label="can"
     style="display:inline"><g
       id="g3394"
       transform="matrix(0.3555594,0,0,0.3555594,2.2216744,2.222203)"><path
         d="M 79.34,12.392 C 79.02,11.603 78.041,9.4 75.242,9.4 c -0.758,0 -8.168,0 -17.092,0 l 0,0 C 58.15,6.97 56.179,5 53.75,5 l -7.5,0 c -2.431,0 -4.401,1.97 -4.401,4.4 l 0,0 c -8.923,0 -16.333,0 -17.091,0 -2.799,0 -3.778,2.203 -4.098,2.991 -0.388,0.953 -0.738,2.99 -0.738,2.99 l 60.156,0 c 0,10e-4 -0.351,-2.036 -0.738,-2.989 z M 44.449,9.4 c 0,-1.215 1.342,-2.2 2.997,-2.2 l 5.109,0 c 1.654,0 2.996,0.985 2.996,2.2 l 0,0 c -3.647,0 -7.455,0 -11.102,0 l 0,0 z"
         id="path3396"
         inkscape:connector-curvature="0" /><path
         d="m 79.299,27.16 -3.463,0 0,-9.333 -51.672,0 0,9.333 -3.462,0 c -0.548,0 -1.158,0.68 -1.158,1.177 0,0.169 0,1.888 0,2.056 0,0.497 0.61,1.179 1.158,1.179 l 3.462,0 3.384,60.746 c 0,0 -0.533,2.045 8.631,2.359 4.266,0.146 8.137,0.229 11.063,0.277 0,0 1.014,0.061 2.758,0.041 1.744,0.02 2.758,-0.041 2.758,-0.041 2.926,-0.049 6.797,-0.131 11.063,-0.277 9.166,-0.314 8.631,-2.359 8.631,-2.359 l 3.385,-60.746 3.463,0 c 0.547,0 1.158,-0.683 1.158,-1.179 0,-0.168 0,-1.887 0,-2.056 C 80.457,27.84 79.846,27.16 79.299,27.16 Z M 33.907,86.752 c -0.674,0.023 -1.239,-0.504 -1.263,-1.178 l -1.94,-55.559 c -0.023,-0.674 0.503,-1.24 1.178,-1.264 0.674,-0.024 1.239,0.504 1.263,1.178 l 1.941,55.559 c 0.023,0.676 -0.505,1.241 -1.179,1.264 z m 8.047,0.014 c -0.675,0.012 -1.231,-0.525 -1.243,-1.199 l -0.97,-55.585 c -0.012,-0.675 0.526,-1.231 1.201,-1.243 0.674,-0.012 1.231,0.526 1.243,1.201 l 0.97,55.584 c 0.01,0.673 -0.527,1.23 -1.201,1.242 z m 9.269,-1.217 c 0,0.674 -0.547,1.221 -1.223,1.221 -0.674,0 -1.222,-0.547 -1.222,-1.221 l 0,-55.593 c 0,-0.675 0.548,-1.222 1.222,-1.222 0.676,0 1.223,0.547 1.223,1.222 l 0,55.593 z m 8.066,0.017 c -0.012,0.674 -0.568,1.211 -1.242,1.199 -0.676,-0.012 -1.213,-0.568 -1.201,-1.242 l 0.971,-55.584 c 0.012,-0.674 0.568,-1.212 1.242,-1.201 0.676,0.012 1.213,0.568 1.201,1.243 l -0.971,55.585 z m 8.066,0.008 c -0.023,0.674 -0.588,1.201 -1.262,1.178 -0.676,-0.023 -1.203,-0.588 -1.18,-1.264 l 1.941,-55.559 c 0.021,-0.674 0.588,-1.202 1.262,-1.178 0.676,0.023 1.203,0.589 1.18,1.264 l -1.941,55.559 z"
         id="path3398"
         inkscape:connector-curvature="0" /></g><path
       style="fill:#ffffff;stroke:none;stroke-width:1px;stroke-linecap:butt;stroke-linejoin:miter;stroke-opacity:1;fill-opacity:1"
       d="M 19.945312 4.8046875 C 19.015477 4.8055581 18.814366 4.82345 18.597656 4.921875 C 18.336592 5.0404444 18.070312 5.3164243 18.070312 5.46875 C 18.070312 5.53901 18.412323 5.5546875 20.007812 5.5546875 C 22.168912 5.5546875 22.150775 5.5589781 21.740234 5.1484375 C 21.447165 4.8553684 21.182457 4.8035275 19.945312 4.8046875 z M 16.640625 12.476562 C 16.344699 12.467097 16.382424 13.039707 16.552734 22.802734 L 16.726562 32.814453 L 16.875 32.933594 C 17.053966 33.078506 17.18546 33.085685 17.369141 32.957031 C 17.502911 32.86332 17.507462 32.822457 17.507812 31.847656 C 17.508013 31.291011 17.437579 26.771876 17.349609 21.804688 C 17.173224 11.845799 17.211036 12.492188 16.789062 12.492188 C 16.732654 12.492188 16.6829 12.477916 16.640625 12.476562 z M 26.5 12.486328 C 26.259956 12.44754 26.007812 12.665139 26.007812 12.998047 C 26.007813 13.368961 25.396609 30.931467 25.349609 31.912109 C 25.310097 32.73648 25.310742 32.738476 25.46875 32.896484 C 25.555831 32.983562 25.655133 33.054688 25.689453 33.054688 C 25.816657 33.054687 26.064722 32.90851 26.101562 32.8125 C 26.122495 32.757952 26.296211 28.219435 26.488281 22.726562 C 26.824614 13.107929 26.834698 12.73472 26.726562 12.615234 C 26.658767 12.540321 26.580015 12.499258 26.5 12.486328 z M 13.589844 12.496094 C 13.490457 12.491171 13.389003 12.524702 13.310547 12.595703 C 13.153061 12.738226 13.148318 12.553088 13.53125 23.423828 L 13.863281 32.824219 L 14.003906 32.939453 C 14.184959 33.086015 14.3317 33.084481 14.515625 32.935547 C 14.653245 32.824145 14.661474 32.781102 14.646484 32.201172 C 14.629491 31.54367 14.025561 13.952683 13.994141 13.199219 C 13.980278 12.866777 13.945162 12.718044 13.857422 12.621094 C 13.786469 12.542693 13.689231 12.501016 13.589844 12.496094 z M 20.017578 12.496094 C 19.914924 12.491373 19.806789 12.518562 19.722656 12.580078 C 19.603556 12.667166 19.601827 12.851802 19.585938 22.707031 L 19.570312 32.746094 L 19.722656 32.900391 C 19.900562 33.078296 20.048233 33.094249 20.244141 32.957031 L 20.382812 32.859375 L 20.382812 22.789062 C 20.382812 13.506845 20.374647 12.710827 20.279297 12.605469 C 20.217555 12.537244 20.120233 12.500814 20.017578 12.496094 z M 23.208984 12.496094 C 23.098559 12.493869 22.99115 12.532622 22.919922 12.611328 C 22.820398 12.721301 22.799762 13.393906 22.664062 21.283203 C 22.583153 25.987163 22.500349 30.490353 22.480469 31.291016 L 22.445312 32.746094 L 22.599609 32.900391 C 22.783437 33.084214 22.966366 33.096134 23.126953 32.935547 C 23.284693 32.777807 23.291146 32.52496 23.443359 22.992188 C 23.511694 18.712499 23.586242 14.657919 23.607422 13.982422 C 23.644758 12.791981 23.64084 12.750215 23.513672 12.623047 C 23.431883 12.541258 23.319409 12.498318 23.208984 12.496094 z "
       id="path4226" /></g></svg>